<?xml version="1.0" encoding="UTF-8"?>
<svg width="164px" height="30px" viewBox="0 0 164 30" version="1.1" xmlns="http://www.w3.org/2000/svg" xmlns:xlink="http://www.w3.org/1999/xlink">
    <title>34AFAFDA-6B57-4D88-9D89-F2B7DFAF052D</title>
    <defs>
        <filter id="filter-1">
            <feColorMatrix in="SourceGraphic" type="matrix" values="0 0 0 0 0.270588 0 0 0 0 0.321569 0 0 0 0 0.423529 0 0 0 0.600000 0"></feColorMatrix>
        </filter>
    </defs>
    <g id="Admin" stroke="none" stroke-width="1" fill="none" fill-rule="evenodd">
        <g id="11_3_Login-Reset" transform="translate(-637.000000, -230.000000)">
            <g filter="url(#filter-1)" id="Logo">
                <g transform="translate(637.000000, 230.000000)">
                    <g id="Logo/white">
                        <path d="M43.4030769,21.9230769 L43.4030769,17.3169231 L45.1569231,17.3169231 C46.0492308,17.3169231 46.8276923,17.2076923 47.4923077,16.9892308 C48.1569231,16.7707692 48.7076923,16.4646154 49.1446154,16.0707692 C49.5815385,15.6769231 49.9076923,15.2061538 50.1230769,14.6584615 C50.3384615,14.1107692 50.4461538,13.5076923 50.4461538,12.8492308 C50.4461538,12.2276923 50.3430769,11.6523077 50.1369231,11.1230769 C49.9307692,10.5938462 49.6123077,10.1369231 49.1815385,9.75230769 C48.7507692,9.36769231 48.2015385,9.06769231 47.5338462,8.85230769 C46.8661538,8.63692308 46.0738462,8.52923077 45.1569231,8.52923077 L45.1569231,8.52923077 L40.6338462,8.52923077 L40.6338462,21.9230769 L43.4030769,21.9230769 Z M45.1569231,15.1938462 L43.4030769,15.1938462 L43.4030769,10.6338462 L45.1569231,10.6338462 C45.5876923,10.6338462 45.96,10.6861538 46.2738462,10.7907692 C46.5876923,10.8953846 46.8476923,11.0446154 47.0538462,11.2384615 C47.26,11.4323077 47.4138462,11.6661538 47.5153846,11.94 C47.6169231,12.2138462 47.6676923,12.5169231 47.6676923,12.8492308 C47.6676923,13.5753846 47.4661538,14.1476923 47.0630769,14.5661538 C46.66,14.9846154 46.0246154,15.1938462 45.1569231,15.1938462 L45.1569231,15.1938462 Z M54.4246154,21.9230769 L54.4246154,8.16 L51.8769231,8.16 L51.8769231,21.9230769 L54.4246154,21.9230769 Z M58.6984615,22.0707692 C59.0307692,22.0707692 59.3338462,22.0430769 59.6076923,21.9876923 C59.8815385,21.9323077 60.14,21.8507692 60.3830769,21.7430769 C60.6261538,21.6353846 60.86,21.5030769 61.0846154,21.3461538 C61.3092308,21.1892308 61.5415385,21.0061538 61.7815385,20.7969231 L61.7815385,20.7969231 L61.9846154,21.3969231 C62.0646154,21.6123077 62.1676923,21.7538462 62.2938462,21.8215385 C62.42,21.8892308 62.6030769,21.9230769 62.8430769,21.9230769 L62.8430769,21.9230769 L64.0061538,21.9230769 L64.0061538,15.9415385 C64.0061538,15.4 63.9230769,14.9015385 63.7569231,14.4461538 C63.5907692,13.9907692 63.3523077,13.5984615 63.0415385,13.2692308 C62.7307692,12.94 62.3523077,12.6830769 61.9061538,12.4984615 C61.46,12.3138462 60.9538462,12.2215385 60.3876923,12.2215385 C59.6,12.2215385 58.8676923,12.3461538 58.1907692,12.5953846 C57.5138462,12.8446154 56.8953846,13.2215385 56.3353846,13.7261538 L56.3353846,13.7261538 L56.7876923,14.5384615 C56.8676923,14.6615385 56.9676923,14.7676923 57.0876923,14.8569231 C57.2076923,14.9461538 57.3569231,14.9907692 57.5353846,14.9907692 C57.7384615,14.9907692 57.9169231,14.9492308 58.0707692,14.8661538 C58.2246154,14.7830769 58.3892308,14.6938462 58.5646154,14.5984615 C58.74,14.5030769 58.9446154,14.4138462 59.1784615,14.3307692 C59.4123077,14.2476923 59.7046154,14.2061538 60.0553846,14.2061538 C60.5292308,14.2061538 60.8923077,14.3461538 61.1446154,14.6261538 C61.3969231,14.9061538 61.5230769,15.3446154 61.5230769,15.9415385 L61.5230769,15.9415385 L61.5230769,16.4307692 C60.4338462,16.4553846 59.5276923,16.5630769 58.8046154,16.7538462 C58.0815385,16.9446154 57.5030769,17.1830769 57.0692308,17.4692308 C56.6353846,17.7553846 56.3292308,18.0723077 56.1507692,18.42 C55.9723077,18.7676923 55.8830769,19.1169231 55.8830769,19.4676923 C55.8830769,19.8923077 55.9507692,20.2676923 56.0861538,20.5938462 C56.2215385,20.92 56.4138462,21.1923077 56.6630769,21.4107692 C56.9123077,21.6292308 57.2092308,21.7938462 57.5538462,21.9046154 C57.8984615,22.0153846 58.28,22.0707692 58.6984615,22.0707692 Z M59.4923077,20.3538462 C59.1230769,20.3538462 58.8353846,20.2769231 58.6292308,20.1230769 C58.4230769,19.9692308 58.32,19.7076923 58.32,19.3384615 C58.32,19.1538462 58.3707692,18.9830769 58.4723077,18.8261538 C58.5738462,18.6692308 58.7461538,18.5307692 58.9892308,18.4107692 C59.2323077,18.2907692 59.56,18.1907692 59.9723077,18.1107692 C60.3846154,18.0307692 60.9015385,17.9784615 61.5230769,17.9538462 L61.5230769,17.9538462 L61.5230769,19.4307692 C61.2153846,19.7446154 60.9046154,19.9769231 60.5907692,20.1276923 C60.2769231,20.2784615 59.9107692,20.3538462 59.4923077,20.3538462 Z M68.8615385,24.9969231 C69.1076923,24.9969231 69.2876923,24.9538462 69.4015385,24.8676923 C69.5153846,24.7815385 69.6123077,24.6523077 69.6923077,24.48 L69.6923077,24.48 L74.8246154,12.4061538 L72.7846154,12.4061538 C72.6307692,12.4061538 72.4892308,12.4492308 72.36,12.5353846 C72.2307692,12.6215385 72.1415385,12.7323077 72.0923077,12.8676923 L72.0923077,12.8676923 L70.4123077,17.4092308 C70.3446154,17.5876923 70.2784615,17.7676923 70.2138462,17.9492308 C70.1492308,18.1307692 70.0892308,18.3138462 70.0338462,18.4984615 C69.9415385,18.1415385 69.8307692,17.7815385 69.7015385,17.4184615 L69.7015385,17.4184615 L67.8923077,12.8676923 C67.8430769,12.7446154 67.7630769,12.6369231 67.6523077,12.5446154 C67.5415385,12.4523077 67.3846154,12.4061538 67.1815385,12.4061538 L67.1815385,12.4061538 L64.9476923,12.4061538 L68.7692308,21.1661538 L66.9692308,24.9969231 L68.8615385,24.9969231 Z M81.7384615,21.9230769 L81.7384615,10.7630769 L85.6523077,10.7630769 L85.6523077,8.52923077 L75.0461538,8.52923077 L75.0461538,10.7630769 L78.96,10.7630769 L78.96,21.9230769 L81.7384615,21.9230769 Z M89.52,21.9230769 L89.52,16.0984615 C89.7107692,15.6430769 89.9430769,15.2876923 90.2169231,15.0323077 C90.4907692,14.7769231 90.8615385,14.6492308 91.3292308,14.6492308 C91.4892308,14.6492308 91.6615385,14.6630769 91.8461538,14.6907692 C92.0307692,14.7184615 92.1723077,14.7323077 92.2707692,14.7323077 C92.3815385,14.7323077 92.4692308,14.7092308 92.5338462,14.6630769 C92.5984615,14.6169231 92.6461538,14.5323077 92.6769231,14.4092308 L92.6769231,14.4092308 L92.8430769,12.5261538 C92.5723077,12.3230769 92.2215385,12.2215385 91.7907692,12.2215385 C91.2615385,12.2215385 90.7984615,12.3784615 90.4015385,12.6923077 C90.0046154,13.0061538 89.6553846,13.4338462 89.3538462,13.9753846 L89.3538462,13.9753846 L89.2246154,13.0246154 C89.1815385,12.7969231 89.1107692,12.6369231 89.0123077,12.5446154 C88.9138462,12.4523077 88.7353846,12.4061538 88.4769231,12.4061538 L88.4769231,12.4061538 L86.9723077,12.4061538 L86.9723077,21.9230769 L89.52,21.9230769 Z M96.0830769,22.0707692 C96.4153846,22.0707692 96.7184615,22.0430769 96.9923077,21.9876923 C97.2661538,21.9323077 97.5246154,21.8507692 97.7676923,21.7430769 C98.0107692,21.6353846 98.2446154,21.5030769 98.4692308,21.3461538 C98.6938462,21.1892308 98.9261538,21.0061538 99.1661538,20.7969231 L99.1661538,20.7969231 L99.3692308,21.3969231 C99.4492308,21.6123077 99.5523077,21.7538462 99.6784615,21.8215385 C99.8046154,21.8892308 99.9876923,21.9230769 100.227692,21.9230769 L100.227692,21.9230769 L101.390769,21.9230769 L101.390769,15.9415385 C101.390769,15.4 101.307692,14.9015385 101.141538,14.4461538 C100.975385,13.9907692 100.736923,13.5984615 100.426154,13.2692308 C100.115385,12.94 99.7369231,12.6830769 99.2907692,12.4984615 C98.8446154,12.3138462 98.3384615,12.2215385 97.7723077,12.2215385 C96.9846154,12.2215385 96.2523077,12.3461538 95.5753846,12.5953846 C94.8984615,12.8446154 94.28,13.2215385 93.72,13.7261538 L93.72,13.7261538 L94.1723077,14.5384615 C94.2523077,14.6615385 94.3523077,14.7676923 94.4723077,14.8569231 C94.5923077,14.9461538 94.7415385,14.9907692 94.92,14.9907692 C95.1230769,14.9907692 95.3015385,14.9492308 95.4553846,14.8661538 C95.6092308,14.7830769 95.7738462,14.6938462 95.9492308,14.5984615 C96.1246154,14.5030769 96.3292308,14.4138462 96.5630769,14.3307692 C96.7969231,14.2476923 97.0892308,14.2061538 97.44,14.2061538 C97.9138462,14.2061538 98.2769231,14.3461538 98.5292308,14.6261538 C98.7815385,14.9061538 98.9076923,15.3446154 98.9076923,15.9415385 L98.9076923,15.9415385 L98.9076923,16.4307692 C97.8184615,16.4553846 96.9123077,16.5630769 96.1892308,16.7538462 C95.4661538,16.9446154 94.8876923,17.1830769 94.4538462,17.4692308 C94.02,17.7553846 93.7138462,18.0723077 93.5353846,18.42 C93.3569231,18.7676923 93.2676923,19.1169231 93.2676923,19.4676923 C93.2676923,19.8923077 93.3353846,20.2676923 93.4707692,20.5938462 C93.6061538,20.92 93.7984615,21.1923077 94.0476923,21.4107692 C94.2969231,21.6292308 94.5938462,21.7938462 94.9384615,21.9046154 C95.2830769,22.0153846 95.6646154,22.0707692 96.0830769,22.0707692 Z M96.8769231,20.3538462 C96.5076923,20.3538462 96.22,20.2769231 96.0138462,20.1230769 C95.8076923,19.9692308 95.7046154,19.7076923 95.7046154,19.3384615 C95.7046154,19.1538462 95.7553846,18.9830769 95.8569231,18.8261538 C95.9584615,18.6692308 96.1307692,18.5307692 96.3738462,18.4107692 C96.6169231,18.2907692 96.9446154,18.1907692 97.3569231,18.1107692 C97.7692308,18.0307692 98.2861538,17.9784615 98.9076923,17.9538462 L98.9076923,17.9538462 L98.9076923,19.4307692 C98.6,19.7446154 98.2892308,19.9769231 97.9753846,20.1276923 C97.6615385,20.2784615 97.2953846,20.3538462 96.8769231,20.3538462 Z M108.406154,21.9230769 L112.144615,12.4061538 L110.132308,12.4061538 C109.966154,12.4061538 109.821538,12.4492308 109.698462,12.5353846 C109.575385,12.6215385 109.492308,12.7323077 109.449231,12.8676923 L109.449231,12.8676923 L107.796923,17.5753846 C107.686154,17.8953846 107.589231,18.2076923 107.506154,18.5123077 C107.423077,18.8169231 107.347692,19.1230769 107.28,19.4307692 C107.218462,19.1230769 107.147692,18.8169231 107.067692,18.5123077 C106.987692,18.2076923 106.895385,17.8953846 106.790769,17.5753846 L106.790769,17.5753846 L105.193846,12.8676923 C105.144615,12.7323077 105.058462,12.6215385 104.935385,12.5353846 C104.812308,12.4492308 104.658462,12.4061538 104.473846,12.4061538 L104.473846,12.4061538 L102.36,12.4061538 L106.098462,21.9230769 L108.406154,21.9230769 Z M117.461538,22.0615385 C117.793846,22.0615385 118.138462,22.0384615 118.495385,21.9923077 C118.852308,21.9461538 119.206154,21.8630769 119.556923,21.7430769 C119.907692,21.6230769 120.246154,21.46 120.572308,21.2538462 C120.898462,21.0476923 121.196923,20.7876923 121.467692,20.4738462 L121.467692,20.4738462 L120.729231,19.5507692 C120.618462,19.4030769 120.464615,19.3292308 120.267692,19.3292308 C120.113846,19.3292308 119.958462,19.3707692 119.801538,19.4538462 C119.644615,19.5369231 119.469231,19.6292308 119.275385,19.7307692 C119.081538,19.8323077 118.856923,19.9246154 118.601538,20.0076923 C118.346154,20.0907692 118.043077,20.1323077 117.692308,20.1323077 C116.996923,20.1323077 116.435385,19.9261538 116.007692,19.5138462 C115.58,19.1015385 115.326154,18.4492308 115.246154,17.5569231 L115.246154,17.5569231 L120.96,17.5569231 C121.076923,17.5569231 121.172308,17.5430769 121.246154,17.5153846 C121.32,17.4876923 121.378462,17.4369231 121.421538,17.3630769 C121.464615,17.2892308 121.495385,17.1907692 121.513846,17.0676923 C121.532308,16.9446154 121.541538,16.7876923 121.541538,16.5969231 C121.541538,15.9076923 121.438462,15.2938462 121.232308,14.7553846 C121.026154,14.2169231 120.736923,13.7630769 120.364615,13.3938462 C119.992308,13.0246154 119.549231,12.7430769 119.035385,12.5492308 C118.521538,12.3553846 117.96,12.2584615 117.350769,12.2584615 C116.630769,12.2584615 115.984615,12.3830769 115.412308,12.6323077 C114.84,12.8815385 114.353846,13.2184615 113.953846,13.6430769 C113.553846,14.0676923 113.247692,14.5661538 113.035385,15.1384615 C112.823077,15.7107692 112.716923,16.32 112.716923,16.9661538 C112.716923,17.8030769 112.84,18.5384615 113.086154,19.1723077 C113.332308,19.8061538 113.669231,20.3369231 114.096923,20.7646154 C114.524615,21.1923077 115.026154,21.5153846 115.601538,21.7338462 C116.176923,21.9523077 116.796923,22.0615385 117.461538,22.0615385 Z M119.261538,16.0430769 L115.292308,16.0430769 C115.396923,15.4092308 115.621538,14.9184615 115.966154,14.5707692 C116.310769,14.2230769 116.787692,14.0492308 117.396923,14.0492308 C117.723077,14.0492308 118.003077,14.1030769 118.236923,14.2107692 C118.470769,14.3184615 118.664615,14.4646154 118.818462,14.6492308 C118.972308,14.8338462 119.084615,15.0461538 119.155385,15.2861538 C119.226154,15.5261538 119.261538,15.7784615 119.261538,16.0430769 L119.261538,16.0430769 Z M125.686154,21.9230769 L125.686154,8.16 L123.138462,8.16 L123.138462,21.9230769 L125.686154,21.9230769 Z M135.332308,21.9230769 L135.332308,8.52923077 L132.544615,8.52923077 L132.544615,21.9230769 L135.332308,21.9230769 Z M140.584615,21.9230769 L140.584615,13.6984615 C140.584615,13.5261538 140.578462,13.34 140.566154,13.14 C140.553846,12.94 140.538462,12.7353846 140.52,12.5261538 L140.52,12.5261538 L144.369231,19.8092308 C144.467692,20.0061538 144.6,20.1553846 144.766154,20.2569231 C144.932308,20.3584615 145.123077,20.4092308 145.338462,20.4092308 L145.338462,20.4092308 L145.726154,20.4092308 C146.163077,20.4092308 146.486154,20.2092308 146.695385,19.8092308 L146.695385,19.8092308 L150.516923,12.5446154 C150.498462,12.7538462 150.484615,12.9569231 150.475385,13.1538462 C150.466154,13.3507692 150.461538,13.5323077 150.461538,13.6984615 L150.461538,13.6984615 L150.461538,21.9230769 L152.907692,21.9230769 L152.907692,8.52923077 L150.803077,8.52923077 C150.68,8.52923077 150.573846,8.53230769 150.484615,8.53846154 C150.395385,8.54461538 150.315385,8.56153846 150.244615,8.58923077 C150.173846,8.61692308 150.107692,8.66 150.046154,8.71846154 C149.984615,8.77692308 149.926154,8.85846154 149.870769,8.96307692 L149.870769,8.96307692 L146.150769,16.08 C146.033846,16.2953846 145.923077,16.52 145.818462,16.7538462 C145.713846,16.9876923 145.615385,17.2276923 145.523077,17.4738462 C145.430769,17.2338462 145.333846,17 145.232308,16.7723077 C145.130769,16.5446154 145.024615,16.3230769 144.913846,16.1076923 L144.913846,16.1076923 L141.166154,8.96307692 C141.110769,8.85846154 141.053846,8.77692308 140.995385,8.71846154 C140.936923,8.66 140.872308,8.61692308 140.801538,8.58923077 C140.730769,8.56153846 140.649231,8.54461538 140.556923,8.53846154 C140.464615,8.53230769 140.36,8.52923077 140.243077,8.52923077 L140.243077,8.52923077 L138.138462,8.52923077 L138.138462,21.9230769 L140.584615,21.9230769 Z M159.147692,22.0707692 C159.892308,22.0707692 160.558462,21.9569231 161.146154,21.7292308 C161.733846,21.5015385 162.227692,21.1892308 162.627692,20.7923077 C163.027692,20.3953846 163.333846,19.9307692 163.546154,19.3984615 C163.758462,18.8661538 163.864615,18.2953846 163.864615,17.6861538 C163.864615,17.1261538 163.776923,16.6507692 163.601538,16.26 C163.426154,15.8692308 163.195385,15.5384615 162.909231,15.2676923 C162.623077,14.9969231 162.298462,14.7723077 161.935385,14.5938462 C161.572308,14.4153846 161.2,14.26 160.818462,14.1276923 C160.436923,13.9953846 160.064615,13.8738462 159.701538,13.7630769 C159.338462,13.6523077 159.013846,13.5261538 158.727692,13.3846154 C158.441538,13.2430769 158.210769,13.0753846 158.035385,12.8815385 C157.86,12.6876923 157.772308,12.4430769 157.772308,12.1476923 C157.772308,11.6861538 157.932308,11.3123077 158.252308,11.0261538 C158.572308,10.74 159.052308,10.5969231 159.692308,10.5969231 C160.055385,10.5969231 160.372308,10.6446154 160.643077,10.74 C160.913846,10.8353846 161.153846,10.9384615 161.363077,11.0492308 C161.572308,11.16 161.755385,11.2630769 161.912308,11.3584615 C162.069231,11.4538462 162.215385,11.5015385 162.350769,11.5015385 C162.492308,11.5015385 162.607692,11.4692308 162.696923,11.4046154 C162.786154,11.34 162.873846,11.2369231 162.96,11.0953846 L162.96,11.0953846 L163.643077,9.79384615 C163.169231,9.35076923 162.589231,9.00461538 161.903077,8.75538462 C161.216923,8.50615385 160.470769,8.38153846 159.664615,8.38153846 C158.944615,8.38153846 158.306154,8.49230769 157.749231,8.71384615 C157.192308,8.93538462 156.723077,9.22769231 156.341538,9.59076923 C155.96,9.95384615 155.670769,10.3692308 155.473846,10.8369231 C155.276923,11.3046154 155.178462,11.7876923 155.178462,12.2861538 C155.178462,12.9076923 155.266154,13.4276923 155.441538,13.8461538 C155.616923,14.2646154 155.846154,14.6153846 156.129231,14.8984615 C156.412308,15.1815385 156.735385,15.4092308 157.098462,15.5815385 C157.461538,15.7538462 157.833846,15.9015385 158.215385,16.0246154 C158.596923,16.1476923 158.969231,16.26 159.332308,16.3615385 C159.695385,16.4630769 160.018462,16.5846154 160.301538,16.7261538 C160.584615,16.8676923 160.813846,17.0430769 160.989231,17.2523077 C161.164615,17.4615385 161.252308,17.7353846 161.252308,18.0738462 C161.252308,18.6584615 161.075385,19.0984615 160.721538,19.3938462 C160.367692,19.6892308 159.867692,19.8369231 159.221538,19.8369231 C158.778462,19.8369231 158.398462,19.7753846 158.081538,19.6523077 C157.764615,19.5292308 157.486154,19.3938462 157.246154,19.2461538 C157.006154,19.0984615 156.793846,18.9630769 156.609231,18.84 C156.424615,18.7169231 156.249231,18.6553846 156.083077,18.6553846 C155.96,18.6553846 155.843077,18.6876923 155.732308,18.7523077 C155.621538,18.8169231 155.532308,18.8984615 155.464615,18.9969231 L155.464615,18.9969231 L154.652308,20.3076923 C154.910769,20.5723077 155.212308,20.8123077 155.556923,21.0276923 C155.901538,21.2430769 156.269231,21.4276923 156.66,21.5815385 C157.050769,21.7353846 157.456923,21.8553846 157.878462,21.9415385 C158.3,22.0276923 158.723077,22.0707692 159.147692,22.0707692 Z" id="PlayTravelIMS" fill="#FFFFFF" fill-rule="nonzero"></path>
                        <g id="Icons/logo-symbol" fill="#BBB0BD">
                            <g id="Logo">
                                <path d="M11.7116874,25.6816542 C9.91001807,25.6816542 7.2091597,25.7195534 6.38878795,25.6880679 C3.87111546,25.5382204 2.40820664,22.9027688 3.68395176,20.6451431 C6.45933876,15.708336 9.30935801,10.8158418 12.1564619,5.92334765 C12.6637281,5.05633075 13.5354095,4.46743561 14.5260361,4.32108642 C15.5172457,4.17473723 16.5212828,4.4872598 17.255944,5.17061139 C17.6419327,5.54727105 17.970198,5.97815571 18.231994,6.44985489 C20.8598657,11.0047547 23.4854051,15.5963876 26.1103615,20.1874375 C26.2584598,20.4264939 26.3838187,20.6783778 26.4852719,20.9407568 C27.4613219,23.3114971 25.9605139,25.6443381 23.4101898,25.6816542 L18.231994,25.6816542 L18.231994,20.1874375 L19.738508,20.1874375 C20.6008603,20.1874375 20.6008603,20.1874375 20.3961182,19.4347012 C19.0463239,16.9887457 17.0407932,14.6168393 15.6530997,12.1708837 C15.2029739,11.3814144 14.8280635,11.4554636 14.4152538,12.1708837 C12.9896611,14.5801062 10.9891612,16.9887457 9.60205078,19.4347012 C9.11519193,20.2632359 9.566498,20.1874375 10.5413818,20.1874375 L11.7116874,20.1874375 L11.7116874,25.6816542 Z"></path>
                            </g>
                        </g>
                    </g>
                </g>
            </g>
        </g>
    </g>
</svg>